HIERARCHY
ROOT Hips
{
  OFFSET -22.4525 93.2731 28.0452
  CHANNELS 6 Xposition Yposition Zposition Zrotation Xrotation Yrotation
  JOINT Spine
  {
    OFFSET 0 8 0
    CHANNELS 6 Xposition Yposition Zposition Zrotation Xrotation Yrotation
    JOINT Spine1
    {
      OFFSET 0 8 0
      CHANNELS 6 Xposition Yposition Zposition Zrotation Xrotation Yrotation
      JOINT Spine2
      {
        OFFSET 0 8 0
        CHANNELS 6 Xposition Yposition Zposition Zrotation Xrotation Yrotation
        JOINT Spine3
        {
          OFFSET 0 8 0
          CHANNELS 6 Xposition Yposition Zposition Zrotation Xrotation Yrotation
          JOINT Neck
          {
            OFFSET 0 17 0
            CHANNELS 6 Xposition Yposition Zposition Zrotation Xrotation Yrotation
            JOINT Head
            {
              OFFSET 0 10.8 0
              CHANNELS 6 Xposition Yposition Zposition Zrotation Xrotation Yrotation
              End Site
              {
                OFFSET 0 20.25 0
              }
            }
          }
          JOINT LeftShoulder
          {
            OFFSET 5 17 0
            CHANNELS 6 Xposition Yposition Zposition Zrotation Xrotation Yrotation
            JOINT LeftShoulder2
            {
              OFFSET 6.45 0 0
              CHANNELS 6 Xposition Yposition Zposition Zrotation Xrotation Yrotation
              JOINT LeftArm
              {
                OFFSET 6.45 0 0
                CHANNELS 6 Xposition Yposition Zposition Zrotation Xrotation Yrotation
                JOINT LeftForeArm
                {
                  OFFSET 0 -32.4 -2
                  CHANNELS 6 Xposition Yposition Zposition Zrotation Xrotation Yrotation
                  JOINT LeftHand
                  {
                    OFFSET 0 -25.65 2
                    CHANNELS 6 Xposition Yposition Zposition Zrotation Xrotation Yrotation
                    JOINT LeftHandThumb1
                    {
                      OFFSET -0.5 -1.5 2.65
                      CHANNELS 6 Xposition Yposition Zposition Zrotation Xrotation Yrotation
                      JOINT LeftHandThumb2
                      {
                        OFFSET 0 -3.8 3.7
                        CHANNELS 6 Xposition Yposition Zposition Zrotation Xrotation Yrotation
                        JOINT LeftHandThumb3
                        {
                          OFFSET 0 -3 2.7
                          CHANNELS 6 Xposition Yposition Zposition Zrotation Xrotation Yrotation
                          End Site
                          {
                            OFFSET 0 -2.3 1.8
                          }
                        }
                      }
                    }
                    JOINT LeftHandIndex
                    {
                      OFFSET 0 -1.9 1.6
                      CHANNELS 6 Xposition Yposition Zposition Zrotation Xrotation Yrotation
                      JOINT LeftHandIndex1
                      {
                        OFFSET 0 -8.3 1.9
                        CHANNELS 6 Xposition Yposition Zposition Zrotation Xrotation Yrotation
                        JOINT LeftHandIndex2
                        {
                          OFFSET 0 -4.5 0
                          CHANNELS 6 Xposition Yposition Zposition Zrotation Xrotation Yrotation
                          JOINT LeftHandIndex3
                          {
                            OFFSET 0 -3.4 0
                            CHANNELS 6 Xposition Yposition Zposition Zrotation Xrotation Yrotation
                            End Site
                            {
                              OFFSET 0 -2.6 0
                            }
                          }
                        }
                      }
                    }
                    JOINT LeftHandMiddle
                    {
                      OFFSET -0.25 -2.2 0.4
                      CHANNELS 6 Xposition Yposition Zposition Zrotation Xrotation Yrotation
                      JOINT LeftHandMiddle1
                      {
                        OFFSET 0 -8.3 1
                        CHANNELS 6 Xposition Yposition Zposition Zrotation Xrotation Yrotation
                        JOINT LeftHandMiddle2
                        {
                          OFFSET 0 -4.65 0
                          CHANNELS 6 Xposition Yposition Zposition Zrotation Xrotation Yrotation
                          JOINT LeftHandMiddle3
                          {
                            OFFSET 0 -3.3 0
                            CHANNELS 6 Xposition Yposition Zposition Zrotation Xrotation Yrotation
                            End Site
                            {
                              OFFSET 0 -2.7 0
                            }
                          }
                        }
                      }
                    }
                    JOINT LeftHandRing
                    {
                      OFFSET -0.5 -2.15 -0.8
                      CHANNELS 6 Xposition Yposition Zposition Zrotation Xrotation Yrotation
                      JOINT LeftHandRing1
                      {
                        OFFSET 0 -7.75 -0.2
                        CHANNELS 6 Xposition Yposition Zposition Zrotation Xrotation Yrotation
                        JOINT LeftHandRing2
                        {
                          OFFSET 0 -3.8 0
                          CHANNELS 6 Xposition Yposition Zposition Zrotation Xrotation Yrotation
                          JOINT LeftHandRing3
                          {
                            OFFSET 0 -3.4 0
                            CHANNELS 6 Xposition Yposition Zposition Zrotation Xrotation Yrotation
                            End Site
                            {
                              OFFSET 0 -2.6 0
                            }
                          }
                        }
                      }
                    }
                    JOINT LeftHandPinky
                    {
                      OFFSET -0.75 -1.75 -1.85
                      CHANNELS 6 Xposition Yposition Zposition Zrotation Xrotation Yrotation
                      JOINT LeftHandPinky1
                      {
                        OFFSET 0 -7.15 -1
                        CHANNELS 6 Xposition Yposition Zposition Zrotation Xrotation Yrotation
                        JOINT LeftHandPinky2
                        {
                          OFFSET 0 -3 0
                          CHANNELS 6 Xposition Yposition Zposition Zrotation Xrotation Yrotation
                          JOINT LeftHandPinky3
                          {
                            OFFSET 0 -2.35 0
                            CHANNELS 6 Xposition Yposition Zposition Zrotation Xrotation Yrotation
                            End Site
                            {
                              OFFSET 0 -2.1 0
                            }
                          }
                        }
                      }
                    }
                  }
                }
              }
            }
          }
          JOINT RightShoulder
          {
            OFFSET -5 17 0
            CHANNELS 6 Xposition Yposition Zposition Zrotation Xrotation Yrotation
            JOINT RightShoulder2
            {
              OFFSET -6.45 0 0
              CHANNELS 6 Xposition Yposition Zposition Zrotation Xrotation Yrotation
              JOINT RightArm
              {
                OFFSET -6.45 0 0
                CHANNELS 6 Xposition Yposition Zposition Zrotation Xrotation Yrotation
                JOINT RightForeArm
                {
                  OFFSET 0 -32.4 -2
                  CHANNELS 6 Xposition Yposition Zposition Zrotation Xrotation Yrotation
                  JOINT RightHand
                  {
                    OFFSET 0 -25.65 2
                    CHANNELS 6 Xposition Yposition Zposition Zrotation Xrotation Yrotation
                    JOINT RightHandThumb1
                    {
                      OFFSET 0.5 -1.5 2.65
                      CHANNELS 6 Xposition Yposition Zposition Zrotation Xrotation Yrotation
                      JOINT RightHandThumb2
                      {
                        OFFSET 0 -3.8 3.7
                        CHANNELS 6 Xposition Yposition Zposition Zrotation Xrotation Yrotation
                        JOINT RightHandThumb3
                        {
                          OFFSET 0 -3 2.7
                          CHANNELS 6 Xposition Yposition Zposition Zrotation Xrotation Yrotation
                          End Site
                          {
                            OFFSET 0 -2.3 1.8
                          }
                        }
                      }
                    }
                    JOINT RightHandIndex
                    {
                      OFFSET 0 -1.9 1.6
                      CHANNELS 6 Xposition Yposition Zposition Zrotation Xrotation Yrotation
                      JOINT RightHandIndex1
                      {
                        OFFSET 0 -8.3 1.9
                        CHANNELS 6 Xposition Yposition Zposition Zrotation Xrotation Yrotation
                        JOINT RightHandIndex2
                        {
                          OFFSET 0 -4.5 0
                          CHANNELS 6 Xposition Yposition Zposition Zrotation Xrotation Yrotation
                          JOINT RightHandIndex3
                          {
                            OFFSET 0 -3.4 0
                            CHANNELS 6 Xposition Yposition Zposition Zrotation Xrotation Yrotation
                            End Site
                            {
                              OFFSET 0 -2.6 0
                            }
                          }
                        }
                      }
                    }
                    JOINT RightHandMiddle
                    {
                      OFFSET 0.25 -2.2 0.4
                      CHANNELS 6 Xposition Yposition Zposition Zrotation Xrotation Yrotation
                      JOINT RightHandMiddle1
                      {
                        OFFSET 0 -8.3 1
                        CHANNELS 6 Xposition Yposition Zposition Zrotation Xrotation Yrotation
                        JOINT RightHandMiddle2
                        {
                          OFFSET 0 -4.65 0
                          CHANNELS 6 Xposition Yposition Zposition Zrotation Xrotation Yrotation
                          JOINT RightHandMiddle3
                          {
                            OFFSET 0 -3.3 0
                            CHANNELS 6 Xposition Yposition Zposition Zrotation Xrotation Yrotation
                            End Site
                            {
                              OFFSET 0 -2.7 0
                            }
                          }
                        }
                      }
                    }
                    JOINT RightHandRing
                    {
                      OFFSET 0.5 -2.15 -0.8
                      CHANNELS 6 Xposition Yposition Zposition Zrotation Xrotation Yrotation
                      JOINT RightHandRing1
                      {
                        OFFSET 0 -7.75 -0.2
                        CHANNELS 6 Xposition Yposition Zposition Zrotation Xrotation Yrotation
                        JOINT RightHandRing2
                        {
                          OFFSET 0 -3.8 0
                          CHANNELS 6 Xposition Yposition Zposition Zrotation Xrotation Yrotation
                          JOINT RightHandRing3
                          {
                            OFFSET 0 -3.4 0
                            CHANNELS 6 Xposition Yposition Zposition Zrotation Xrotation Yrotation
                            End Site
                            {
                              OFFSET 0 -2.6 0
                            }
                          }
                        }
                      }
                    }
                    JOINT RightHandPinky
                    {
                      OFFSET 0.75 -1.75 -1.85
                      CHANNELS 6 Xposition Yposition Zposition Zrotation Xrotation Yrotation
                      JOINT RightHandPinky1
                      {
                        OFFSET 0 -7.15 -1
                        CHANNELS 6 Xposition Yposition Zposition Zrotation Xrotation Yrotation
                        JOINT RightHandPinky2
                        {
                          OFFSET 0 -3 0
                          CHANNELS 6 Xposition Yposition Zposition Zrotation Xrotation Yrotation
                          JOINT RightHandPinky3
                          {
                            OFFSET 0 -2.35 0
                            CHANNELS 6 Xposition Yposition Zposition Zrotation Xrotation Yrotation
                            End Site
                            {
                              OFFSET 0 -2.1 0
                            }
                          }
                        }
                      }
                    }
                  }
                }
              }
            }
          }
        }
      }
    }
  }
  JOINT LeftUpLeg
  {
    OFFSET 8 0 0
    CHANNELS 6 Xposition Yposition Zposition Zrotation Xrotation Yrotation
    JOINT LeftLeg
    {
      OFFSET 0 -45 -1
      CHANNELS 6 Xposition Yposition Zposition Zrotation Xrotation Yrotation
      JOINT LeftFoot
      {
        OFFSET 0 -41 -2
        CHANNELS 6 Xposition Yposition Zposition Zrotation Xrotation Yrotation
        JOINT LeftToeBase
        {
          OFFSET 0 -7.5 12.5
          CHANNELS 6 Xposition Yposition Zposition Zrotation Xrotation Yrotation
          JOINT LeftFootToe
          {
            OFFSET 0 0 4
            CHANNELS 6 Xposition Yposition Zposition Zrotation Xrotation Yrotation
            End Site
            {
              OFFSET 0 0 0
            }
          }
        }
      }
    }
  }
  JOINT RightUpLeg
  {
    OFFSET -8 0 0
    CHANNELS 6 Xposition Yposition Zposition Zrotation Xrotation Yrotation
    JOINT RightLeg
    {
      OFFSET 0 -45 -1
      CHANNELS 6 Xposition Yposition Zposition Zrotation Xrotation Yrotation
      JOINT RightFoot
      {
        OFFSET 0 -41 -2
        CHANNELS 6 Xposition Yposition Zposition Zrotation Xrotation Yrotation
        JOINT RightToeBase
        {
          OFFSET 0 -7.5 12.5
          CHANNELS 6 Xposition Yposition Zposition Zrotation Xrotation Yrotation
          JOINT RightFootToe
          {
            OFFSET 0 0 4
            CHANNELS 6 Xposition Yposition Zposition Zrotation Xrotation Yrotation
            End Site
            {
              OFFSET 0 0 0
            }
          }
        }
      }
    }
  }
}
MOTION
Frames:	4
Frame Time:	0.0111111
0 93.5 0 0 0 -0 0 8 0 0 0 -0 0 8 0 0 0 -0 0 8 0 0 0 -0 0 8 0 0 0 -0 0 17 0 0 0 -0 0 10.8 0 0 0 -0 5 17 0 0 0 -0 6.45 0 0 0 0 -0 6.45 0 0 90.0002 0 -0 0 -32.4 -2 0 0 -0 0 -25.65 2 0 0 -0 -0.5 -1.5 2.65 0 0 -0 0 -3.8 3.7 0.00409071 0 0.00629994 -2.84217e-14 -3 2.7 -1.55301e-18 -5.70616e-23 -2.32951e-18 -2.84217e-14 -1.9 1.6 0 0 -0 2.84217e-14 -8.3 1.9 -0.00859749 0 -0 2.84217e-14 -4.5 0 0 0 -0 0 -3.4 0 1.55301e-18 0 -0 -0.25 -2.2 0.4 0 0 -0 2.84217e-14 -8.3 1 -0.0087047 0 -0 -2.84217e-14 -4.65 0 0 0 -0 0 -3.3 0 0 0 -0 -0.5 -2.15 -0.8 0 0 -0 0 -7.75 -0.2 -0.00898861 0 0.00829784 -2.84217e-14 -3.8 0 3.10601e-18 -5.97865e-23 -0 0 -3.4 0 -5.49105e-26 -1.79359e-22 -0 -0.75 -1.75 -1.85 0 0 -0 0 -7.15 -1 -0.00839062 0 0.00837235 0 -3 0 2.77018e-26 7.85841e-23 -0 -2.84217e-14 -2.35 0 0 2.35752e-22 -0 -5 17 0 0 0 -0 -6.45 0 0 0 0 -0 -6.45 0 0 -90.0002 0 -0 0 -32.4 -2 0 0 -0 0 -25.65 2 0 0 -0 0.5 -1.5 2.65 0 0 -0 0 -3.8 3.7 0 0 -0 0 -3 2.7 0 0 -0 2.84217e-14 -1.9 1.6 0 0 -0 -2.84217e-14 -8.3 1.9 0.00842042 0 -0 0 -4.5 0 0 0 -0 0 -3.4 0 0 0 -0 0.25 -2.2 0.4 0 0 -0 -2.84217e-14 -8.3 1 2.42657e-20 0 -0.0022507 2.84217e-14 -4.65 0 -5.81791e-29 9.53207e-25 -0 -2.84217e-14 -3.3 0 -5.81791e-29 -6.30355e-25 -0 0.5 -2.15 -0.8 0 0 -0 0 -7.75 -0.2 0 0 -0.00716668 0 -3.8 0 -4.24058e-07 0.00499615 0.00486309 -2.84217e-14 -3.4 -1.11022e-16 -3.34454e-07 0.00478711 0.004003 0.75 -1.75 -1.85 0 0 -0 0 -7.15 -1 0 0 -0 0 -3 0 0 0 -0 0 -2.35 0 0 0 -0 8 0 0 0 0 -0.00317479 -8.88178e-16 -45 -1 0 0 -0 -8.88178e-16 -41 -2 0 0 -0 8.88178e-16 -7.5 12.5 0 0 -0 0 0 4 0 0 -0 -8 0 0 0 0 -0 0 -45 -1 0 0 -0 0 -41 -2 0 0 -0 0 -7.5 12.5 0 0 -0 0 0 4 0 0 -0 
-20.5545 93.2227 27.4282 0.237912 -0.141677 134.908 3.55271e-15 8 0 0.44268 -4.58823 -1.19183 -1.77636e-15 8 0 -0.130379 2.10805 -0.390418 1.77636e-15 8 -3.55271e-15 -0.0669806 1.05401 -0.195794 1.77636e-15 8 0 -0.0669692 1.05383 -0.195757 0 17 0 -1.00034 -5.48423 0.05406 -1.77636e-15 10.8 0 -3.08997 -2.0603 0.31281 5 17 7.10543e-15 -2.32138 -6.72834 -4.69345 6.45 0 -7.10543e-15 0.753528 0.342112 1.17507 6.45 2.84217e-14 0 2.93174 1.36621 -12.1236 -1.77636e-15 -32.4 -2 1.56594 -1.04168 10.2394 3.55271e-15 -25.65 2 -1.42923 3.87722 -7.78942 -0.5 -1.5 2.65 -2.12557 -8.85312 -1.84377 -8.88178e-16 -3.8 3.7 0.00282649 11.3469 0.00642554 8.88178e-16 -3 2.7 7.95139e-16 4.89046 -0 0 -1.9 1.6 -3.97569e-16 5.96354e-16 -6.36111e-15 -1.77636e-15 -8.3 1.9 -0.00859749 0.791462 -0 1.77636e-15 -4.5 3.55271e-15 -3.97569e-16 -3.97569e-16 -0 -1.77636e-15 -3.4 3.55271e-15 0 0 -0 -0.25 -2.2 0.4 -3.97569e-16 5.96354e-16 -6.36111e-15 0 -8.3 1 -0.0087047 0.790966 -6.36172e-15 1.77636e-15 -4.65 0 3.97569e-16 0 6.36111e-15 -1.77636e-15 -3.3 3.55271e-15 0 0 -3.18055e-15 -0.5 -2.15 -0.8 -3.97569e-16 5.96354e-16 -6.36111e-15 1.77636e-15 -7.75 -0.2 -0.00910374 0.794892 0.00829864 0 -3.8 -3.55271e-15 -7.95139e-16 -5.96354e-16 -6.36111e-15 -1.77636e-15 -3.4 3.55271e-15 3.97569e-16 -5.96354e-16 -9.54166e-15 -0.75 -1.75 -1.85 -3.97569e-16 5.96354e-16 -6.36111e-15 1.77636e-15 -7.15 -1 -0.0085054 0.785437 0.00837314 0 -3 0 -6.62086e-32 -3.97569e-16 -9.54166e-15 0 -2.35 0 -0 -1.98785e-16 -0 -5 17 0 0.674903 -6.58285 -2.02073 -6.45 -2.84217e-14 0 -0.0101508 0.0129949 -3.8965 -6.45 0 0 0.286809 -0.576256 12.0815 0 -32.4 -2 0.719701 -3.09215 -4.52883 0 -25.65 2 0.926729 1.81601 2.63676 0.5 -1.5 2.65 -1.79053 -3.68014 2.57522 0 -3.8 3.7 -1.07007e-15 9.28904 -3.22282e-15 0 -3 2.7 -1.76339e-16 -0.101084 1.27222e-14 0 -1.9 1.6 -7.95139e-16 -2.38542e-15 -6.36111e-15 0 -8.3 1.9 0.00842042 0.133201 3.18056e-15 3.55271e-15 -4.5 1.77636e-15 4.32922 -3.18055e-15 -9.54166e-15 -1.77636e-15 -3.4 0 4.0859 -1.59028e-15 -3.18055e-15 0.25 -2.2 0.4 -7.95139e-16 -2.38542e-15 -6.36111e-15 0 -8.3 1 0.0192892 0.615829 -0.00225083 -3.55271e-15 -4.65 0 2.4269 -1.59028e-15 -6.36111e-15 -1.77636e-15 -3.3 1.77636e-15 2.3485 0 6.36111e-15 0.5 -2.15 -0.8 -7.95139e-16 -2.38542e-15 -6.36111e-15 0 -7.75 -0.2 0.055933 1.56693 -0.00716936 0 -3.8 0 5.95383 0.00499615 0.00486309 0 -3.4 0 5.50396 0.00478711 0.004003 0.75 -1.75 -1.85 -7.95139e-16 -2.38542e-15 -6.36111e-15 0 -7.15 -1 0.0562018 2.03834 -0.009474 0 -3 -3.55271e-15 0 7.95139e-16 -0 0 -2.35 3.55271e-15 -7.95139e-16 -7.95139e-16 -3.18055e-15 8 -1.42109e-14 -7.10543e-15 0.150698 2.82866 -0.00317866 0 -45 -1 0.00192469 3.83147 0.219809 3.55271e-15 -41 -2 0.0945127 -6.57269 -11.1405 -3.55271e-15 -7.5 12.5 2.58627e-34 2.32951e-18 -6.36111e-15 -1.77636e-15 0 4 8.64045 1.73878 4.04808 -8 0 -7.10543e-15 0.233793 0.211606 0.787214 -1.77636e-15 -45 -1 0.00355637 3.8313 0.56251 0 -41 -2 -0.0100081 -3.97468 0.0833285 1.77636e-15 -7.5 12.5 -4.85314e-20 7.27971e-20 3.18055e-15 1.77636e-15 1.35525e-20 4 -0.532199 -1.71372 -14.8032 
-20.5643 93.2223 27.4209 0.241364 -0.145296 134.89 0 8 0 0.44273 -4.58356 -1.19103 0 8 0 -0.127957 2.10633 -0.387462 -3.55271e-15 8 0 -0.0657545 1.05315 -0.194314 0 8 0 -0.0657432 1.05296 -0.194266 1.77636e-15 17 0 -0.998194 -5.48493 0.0507442 3.55271e-15 10.8 0 -3.08195 -2.07076 0.304257 5 17 0 -2.32604 -6.71994 -4.70004 6.45 -2.84217e-14 0 0.753509 0.340408 1.18531 6.45 -2.84217e-14 0 2.9367 1.36609 -12.1521 0 -32.4 -2 1.56491 -1.04186 10.2517 0 -25.65 2 -1.43065 3.87559 -7.79273 -0.5 -1.5 2.65 -2.1253 -8.85176 -1.82814 1.77636e-15 -3.8 3.7 0.00282619 11.3495 0.0064256 8.88178e-16 -3 2.7 3.71496e-16 4.88988 -3.19217e-15 -3.55271e-15 -1.9 1.6 -7.95139e-16 0 -6.36111e-15 3.55271e-15 -8.3 1.9 -0.00859749 0.792598 -3.18086e-15 1.77636e-15 -4.5 3.55271e-15 6.62086e-32 -3.97569e-16 9.54166e-15 0 -3.4 0 3.97569e-16 -5.96354e-16 9.54166e-15 -0.25 -2.2 0.4 -7.95139e-16 0 -6.36111e-15 1.77636e-15 -8.3 1 -0.0087047 0.79236 -3.18086e-15 1.77636e-15 -4.65 3.55271e-15 3.97569e-16 -3.97569e-16 -0 -3.55271e-15 -3.3 0 -3.97569e-16 0 -3.18055e-15 -0.5 -2.15 -0.8 -7.95139e-16 0 -6.36111e-15 0 -7.75 -0.2 -0.00910402 0.79681 0.00829864 -1.77636e-15 -3.8 7.10543e-15 -7.95139e-16 3.97569e-16 6.36111e-15 -3.55271e-15 -3.4 0 -0 0 9.54166e-15 -0.75 -1.75 -1.85 -7.95139e-16 0 -6.36111e-15 1.77636e-15 -7.15 -1 -0.00850572 0.787639 0.00837314 1.77636e-15 -3 3.55271e-15 3.97569e-16 0 3.18055e-15 0 -2.35 0 7.95139e-16 -3.97569e-16 -3.18055e-15 -5 17 -7.10543e-15 0.671625 -6.5785 -2.02937 -6.45 -2.84217e-14 -7.10543e-15 -0.00430926 0.0139045 -3.89692 -6.45 2.84217e-14 -5.32907e-15 0.286133 -0.578078 12.0972 3.55271e-15 -32.4 -2 0.715894 -3.08847 -4.53516 -3.55271e-15 -25.65 2 0.925603 1.81503 2.63207 0.5 -1.5 2.65 -1.79234 -3.6808 2.5789 0 -3.8 3.7 1.31533e-15 9.28876 -3.22281e-15 3.55271e-15 -3 2.7 1.87562e-16 -0.101083 -6.36112e-15 0 -1.9 1.6 7.95139e-16 7.95139e-16 3.18055e-15 0 -8.3 1.9 0.00842042 0.131232 -0 0 -4.5 1.77636e-15 4.3128 1.59028e-15 -0 1.77636e-15 -3.4 -1.77636e-15 4.07127 3.18055e-15 3.18055e-15 0.25 -2.2 0.4 7.95139e-16 7.95139e-16 3.18055e-15 0 -8.3 1 0.0192048 0.61279 -0.00225083 0 -4.65 -3.55271e-15 2.42322 0 9.54166e-15 1.77636e-15 -3.3 1.77636e-15 2.34506 -1.59028e-15 -1.59028e-14 0.5 -2.15 -0.8 7.95139e-16 7.95139e-16 3.18055e-15 3.55271e-15 -7.75 -0.2 0.0556584 1.56176 -0.00716935 0 -3.8 0 5.94869 0.00499615 0.00486309 1.77636e-15 -3.4 3.55271e-15 5.49957 0.00478711 0.004003 0.75 -1.75 -1.85 7.95139e-16 7.95139e-16 3.18055e-15 0 -7.15 -1 0.0558569 2.0321 -0.00941359 0 -3 0 -7.95139e-16 -2.38542e-15 -6.36111e-15 0 -2.35 3.55271e-15 7.95139e-16 -7.95139e-16 -3.18055e-15 8 1.42109e-14 0 0.145172 2.82852 -0.00317866 1.77636e-15 -45 -1 0.00194927 3.83239 0.223325 3.55271e-15 -41 -2 0.103821 -6.56766 -11.1227 0 -7.5 12.5 -3.10601e-18 -1.55301e-18 -0 0 -5.55112e-17 4 8.64195 1.73298 4.04856 -8 0 0 0.228615 0.208164 0.783929 0 -45 -1 0.00358266 3.83131 0.566104 0 -41 -2 0.00171916 -3.99493 0.10575 0 -7.5 12.5 -4.65902e-18 -6.21202e-18 -3.18055e-15 1.77636e-15 0 4 -0.542121 -1.69882 -14.803 
-20.5754 93.2224 27.4134 0.244108 -0.148209 134.871 -1.77636e-15 8 0 0.441353 -4.57883 -1.19054 0 8 0 -0.125309 2.10456 -0.384514 0 8 0 -0.0643118 1.0523 -0.192703 1.77636e-15 8 7.10543e-15 -0.064301 1.05204 -0.192656 0 17 -7.10543e-15 -0.997357 -5.48391 0.0476511 5.32907e-15 10.8 -7.10543e-15 -3.07368 -2.08088 0.296266 5 17 -7.10543e-15 -2.33117 -6.71186 -4.70413 6.45 -2.84217e-14 0 0.754582 0.339107 1.19975 6.45 0 -3.55271e-15 2.94141 1.36534 -12.1897 -3.55271e-15 -32.4 -2 1.56508 -1.04353 10.2575 0 -25.65 2 -1.43392 3.87604 -7.79129 -0.5 -1.5 2.65 -2.12443 -8.85156 -1.81613 0 -3.8 3.7 0.00286157 11.3534 0.00642568 8.88178e-16 -3 2.7 7.6907e-16 4.88997 -3.19217e-15 0 -1.9 1.6 3.31043e-32 5.96354e-16 -3.18055e-15 0 -8.3 1.9 -0.00862566 0.793065 -0 0 -4.5 0 -1.10348e-32 1.98785e-16 3.18055e-15 0 -3.4 3.55271e-15 3.97569e-16 3.97569e-16 3.18055e-15 -0.25 -2.2 0.4 3.31043e-32 5.96354e-16 -3.18055e-15 0 -8.3 1 -0.00872443 0.793167 -9.54258e-15 0 -4.65 3.55271e-15 -3.97569e-16 -1.98785e-16 -3.18055e-15 1.77636e-15 -3.3 0 0 0 -1.27222e-14 -0.5 -2.15 -0.8 3.31043e-32 5.96354e-16 -3.18055e-15 0 -7.75 -0.2 -0.0091183 0.797197 0.00829864 0 -3.8 0 -7.95139e-16 -1.98785e-16 3.18055e-15 0 -3.4 -3.55271e-15 -3.97569e-16 0 3.18055e-15 -0.75 -1.75 -1.85 3.31043e-32 5.96354e-16 -3.18055e-15 3.55271e-15 -7.15 -1 -0.00854064 0.787858 0.00837314 -3.55271e-15 -3 0 3.97569e-16 0 -0 0 -2.35 3.55271e-15 -3.31043e-32 5.96354e-16 3.18055e-15 -5 17 0 0.667506 -6.57349 -2.03976 -6.45 -2.84217e-14 -3.55271e-15 0.00086709 0.0146906 -3.89637 -6.45 0 1.77636e-15 0.285142 -0.58169 12.1148 0 -32.4 -2 0.710362 -3.08478 -4.5415 0 -25.65 2 0.922532 1.81407 2.62617 0.5 -1.5 2.65 -1.79466 -3.68171 2.58373 3.55271e-15 -3.8 3.7 -2.97423e-17 9.28847 -9.66843e-15 -3.55271e-15 -3 2.7 1.98785e-16 -0.101083 -0 3.55271e-15 -1.9 1.6 -1.59028e-15 1.59028e-15 -0 -7.10543e-15 -8.3 1.9 0.00842042 0.12838 1.27223e-14 3.55271e-15 -4.5 0 4.29397 -1.59028e-15 -0 -1.77636e-15 -3.4 1.77636e-15 4.05449 1.59028e-15 6.36111e-15 0.25 -2.2 0.4 -1.59028e-15 1.59028e-15 -0 0 -8.3 1 0.0192017 0.609002 -0.0022857 0 -4.65 -1.77636e-15 2.42309 -3.18055e-15 1.27222e-14 -3.55271e-15 -3.3 -3.55271e-15 2.34494 0 -0 0.5 -2.15 -0.8 -1.59028e-15 1.59028e-15 -0 0 -7.75 -0.2 0.0556209 1.5561 -0.00720458 3.55271e-15 -3.8 3.55271e-15 5.94492 0.00499615 0.00486309 0 -3.4 0 5.49984 0.00478711 0.004003 0.75 -1.75 -1.85 -1.59028e-15 1.59028e-15 -0 -3.55271e-15 -7.15 -1 0.0557952 2.02551 -0.0094386 3.55271e-15 -3 -7.10543e-15 7.95139e-16 1.59028e-15 -3.18055e-15 0 -2.35 0 7.95139e-16 2.38542e-15 3.18055e-15 8 -1.42109e-14 0 0.138789 2.82848 -0.00317866 1.77636e-15 -45 -1 0.00172588 3.83245 0.226844 -3.55271e-15 -41 -2 0.114631 -6.56746 -11.104 5.32907e-15 -7.5 12.5 -3.10601e-18 4.65902e-18 -6.36111e-15 0 0 4 8.64096 1.73246 4.04826 -8 -1.42109e-14 0 0.222767 0.204336 0.783556 0 -45 -1 0.00362068 3.83131 0.570108 1.77636e-15 -41 -2 0.0121255 -3.99218 0.129974 -1.77636e-15 -7.5 12.5 1.55301e-18 1.55301e-18 3.18055e-15 1.77636e-15 0 4 -0.551819 -1.70704 -14.8032 
